  0
SECTION
  2
HEADER
  9
$ACADVER
  1
AC1009
  9
$DWGCODEPAGE
  3
ansi_1252
  9
$INSBASE
 10
0.0
 20
0.0
 30
0.0
  9
$EXTMIN
 10
1851.223093102362
 20
1301.60055986624
 30
0.0
  9
$EXTMAX
 10
2465.177622135341
 20
1366.60055986624
 30
0.0
  9
$LIMMIN
 10
0.0
 20
0.0
  9
$LIMMAX
 10
12.0
 20
9.0
  9
$ORTHOMODE
 70
     0
  9
$REGENMODE
 70
     1
  9
$FILLMODE
 70
     1
  9
$QTEXTMODE
 70
     0
  9
$MIRRTEXT
 70
     1
  9
$DRAGMODE
 70
     2
  9
$LTSCALE
 40
1.0
  9
$OSMODE
 70
    37
  9
$ATTMODE
 70
     1
  9
$TEXTSIZE
 40
0.2
  9
$TRACEWID
 40
0.05
  9
$TEXTSTYLE
  7
STANDARD
  9
$CLAYER
  8
0
  9
$CELTYPE
  6
BYLAYER
  9
$CECOLOR
 62
   256
  9
$DIMSCALE
 40
1.0
  9
$DIMASZ
 40
0.18
  9
$DIMEXO
 40
0.0625
  9
$DIMDLI
 40
0.38
  9
$DIMRND
 40
0.0
  9
$DIMDLE
 40
0.0
  9
$DIMEXE
 40
0.18
  9
$DIMTP
 40
0.0
  9
$DIMTM
 40
0.0
  9
$DIMTXT
 40
0.18
  9
$DIMCEN
 40
0.09
  9
$DIMTSZ
 40
0.0
  9
$DIMTOL
 70
     0
  9
$DIMLIM
 70
     0
  9
$DIMTIH
 70
     1
  9
$DIMTOH
 70
     1
  9
$DIMSE1
 70
     0
  9
$DIMSE2
 70
     0
  9
$DIMTAD
 70
     0
  9
$DIMZIN
 70
     0
  9
$DIMBLK
  1

  9
$DIMASO
 70
     1
  9
$DIMSHO
 70
     1
  9
$DIMPOST
  1

  9
$DIMAPOST
  1

  9
$DIMALT
 70
     0
  9
$DIMALTD
 70
     2
  9
$DIMALTF
 40
25.4
  9
$DIMLFAC
 40
1.0
  9
$DIMTOFL
 70
     0
  9
$DIMTVP
 40
0.0
  9
$DIMTIX
 70
     0
  9
$DIMSOXD
 70
     0
  9
$DIMSAH
 70
     0
  9
$DIMBLK1
  1

  9
$DIMBLK2
  1

  9
$DIMSTYLE
  2
STANDARD_ACAD
  9
$DIMCLRD
 70
     0
  9
$DIMCLRE
 70
     0
  9
$DIMCLRT
 70
     0
  9
$DIMTFAC
 40
1.0
  9
$DIMGAP
 40
0.09
  9
$LUNITS
 70
     2
  9
$LUPREC
 70
     2
  9
$SKETCHINC
 40
0.1
  9
$FILLETRAD
 40
0.0
  9
$AUNITS
 70
     0
  9
$AUPREC
 70
     0
  9
$MENU
  1
.
  9
$ELEVATION
 40
0.0
  9
$PELEVATION
 40
0.0
  9
$THICKNESS
 40
0.0
  9
$LIMCHECK
 70
     0
  9
$CHAMFERA
 40
0.0
  9
$CHAMFERB
 40
0.0
  9
$SKPOLY
 70
     0
  9
$TDCREATE
 40
2460635.772108577
  9
$TDUPDATE
 40
2460635.772173993
  9
$TDINDWG
 40
0.0000000116
  9
$TDUSRTIMER
 40
0.0000000116
  9
$USRTIMER
 70
     1
  9
$ANGBASE
 50
0.0
  9
$ANGDIR
 70
     0
  9
$PDMODE
 70
     0
  9
$PDSIZE
 40
0.0
  9
$PLINEWID
 40
0.0
  9
$COORDS
 70
     1
  9
$SPLFRAME
 70
     0
  9
$SPLINETYPE
 70
     6
  9
$SPLINESEGS
 70
     8
  9
$ATTDIA
 70
     0
  9
$ATTREQ
 70
     1
  9
$HANDLING
 70
     1
  9
$HANDSEED
  5
12D
  9
$SURFTAB1
 70
     6
  9
$SURFTAB2
 70
     6
  9
$SURFTYPE
 70
     6
  9
$SURFU
 70
     6
  9
$SURFV
 70
     6
  9
$UCSNAME
  2

  9
$UCSORG
 10
0.0
 20
0.0
 30
0.0
  9
$UCSXDIR
 10
1.0
 20
0.0
 30
0.0
  9
$UCSYDIR
 10
0.0
 20
1.0
 30
0.0
  9
$PUCSNAME
  2

  9
$PUCSORG
 10
0.0
 20
0.0
 30
0.0
  9
$PUCSXDIR
 10
1.0
 20
0.0
 30
0.0
  9
$PUCSYDIR
 10
0.0
 20
1.0
 30
0.0
  9
$USERI1
 70
     0
  9
$USERI2
 70
     0
  9
$USERI3
 70
     0
  9
$USERI4
 70
     0
  9
$USERI5
 70
     0
  9
$USERR1
 40
0.0
  9
$USERR2
 40
0.0
  9
$USERR3
 40
0.0
  9
$USERR4
 40
0.0
  9
$USERR5
 40
0.0
  9
$WORLDVIEW
 70
     1
  9
$SHADEDGE
 70
     3
  9
$SHADEDIF
 70
    70
  9
$TILEMODE
 70
     1
  9
$MAXACTVP
 70
    64
  9
$PLIMCHECK
 70
     0
  9
$PEXTMIN
 10
1.000000000000000E+20
 20
1.000000000000000E+20
 30
1.000000000000000E+20
  9
$PEXTMAX
 10
-1.000000000000000E+20
 20
-1.000000000000000E+20
 30
-1.000000000000000E+20
  9
$PLIMMIN
 10
0.0
 20
0.0
  9
$PLIMMAX
 10
12.0
 20
9.0
  9
$UNITMODE
 70
     0
  9
$VISRETAIN
 70
     1
  9
$PLINEGEN
 70
     0
  9
$PSLTSCALE
 70
     1
  0
ENDSEC
  0
SECTION
  2
TABLES
  0
TABLE
  2
VPORT
 70
     1
  0
VPORT
  2
*ACTIVE
 70
     0
 10
0.0
 20
0.0
 11
1.0
 21
1.0
 12
10.42990654205607
 22
4.5
 13
0.0
 23
0.0
 14
0.5
 24
0.5
 15
0.5
 25
0.5
 16
0.0
 26
0.0
 36
1.0
 17
0.0
 27
0.0
 37
0.0
 40
9.0
 41
1.972972972850329
 42
50.0
 43
0.0
 44
0.0
 50
0.0
 51
0.0
 71
     0
 72
   100
 73
     1
 74
     3
 75
     0
 76
     0
 77
     0
 78
     0
  0
ENDTAB
  0
TABLE
  2
LTYPE
 70
     1
  0
LTYPE
  2
CONTINUOUS
 70
     0
  3
Solid line
 72
    65
 73
     0
 40
0.0
  0
ENDTAB
  0
TABLE
  2
LAYER
 70
     2
  0
LAYER
  2
0
 70
     0
 62
     7
  6
CONTINUOUS
  0
LAYER
  2
\U+041F\U+041E_\U+0423\U+041C\U+041E\U+041B\U+0427\U+0410\U+041D\U+0418\U+042E
 70
     0
 62
     7
  6
CONTINUOUS
  0
ENDTAB
  0
TABLE
  2
STYLE
 70
     1
  0
STYLE
  2
STANDARD
 70
     0
 40
0.0
 41
1.0
 50
0.0
 71
     0
 42
0.2
  3
txt
  4

  0
ENDTAB
  0
TABLE
  2
VIEW
 70
     0
  0
ENDTAB
  0
TABLE
  2
UCS
 70
     0
  0
ENDTAB
  0
TABLE
  2
APPID
 70
     2
  0
APPID
  2
ACAD
 70
     0
  0
APPID
  2
RHINO
 70
     0
  0
ENDTAB
  0
TABLE
  2
DIMSTYLE
 70
     1
  0
DIMSTYLE
  2
STANDARD_ACAD
 70
     0
  3

  4

  5

  6

  7

 40
1.0
 41
0.18
 42
0.0625
 43
0.38
 44
0.18
 45
0.0
 46
0.0
 47
0.0
 48
0.0
140
0.18
141
0.09
142
0.0
143
25.4
144
1.0
145
0.0
146
1.0
147
0.09
 71
     0
 72
     0
 73
     1
 74
     1
 75
     0
 76
     0
 77
     0
 78
     0
170
     0
171
     2
172
     0
173
     0
174
     0
175
     0
176
     0
177
     0
178
     0
  0
ENDTAB
  0
ENDSEC
  0
SECTION
  2
BLOCKS
  0
BLOCK
  8
0
  2
$MODEL_SPACE
 70
     0
 10
0.0
 20
0.0
 30
0.0
  3
$MODEL_SPACE
  1

  0
ENDBLK
  5
21
  8
0
  0
BLOCK
 67
     1
  8
0
  2
$PAPER_SPACE
 70
     0
 10
0.0
 20
0.0
 30
0.0
  3
$PAPER_SPACE
  1

  0
ENDBLK
  5
1D
 67
     1
  8
0
  0
ENDSEC
  0
SECTION
  2
ENTITIES
  0
LINE
  5
60
  8
\U+041F\U+041E_\U+0423\U+041C\U+041E\U+041B\U+0427\U+0410\U+041D\U+0418\U+042E
 10
2465.177622135341
 20
1301.60055986624
 30
0.0
 11
2377.129551216774
 21
1365.995575491854
 31
0.0
  0
LINE
  5
61
  8
\U+041F\U+041E_\U+0423\U+041C\U+041E\U+041B\U+0427\U+0410\U+041D\U+0418\U+042E
 10
2377.129551216774
 20
1365.995575491854
 30
0.0
 11
2377.628179319906
 21
1366.60055986624
 31
0.0
  0
LINE
  5
62
  8
\U+041F\U+041E_\U+0423\U+041C\U+041E\U+041B\U+0427\U+0410\U+041D\U+0418\U+042E
 10
2377.628179319906
 20
1366.60055986624
 30
0.0
 11
1938.772535917798
 21
1366.60055986624
 31
0.0
  0
LINE
  5
63
  8
\U+041F\U+041E_\U+0423\U+041C\U+041E\U+041B\U+0427\U+0410\U+041D\U+0418\U+042E
 10
1938.772535917798
 20
1366.60055986624
 30
0.0
 11
1939.27116402093
 21
1365.995575491854
 31
0.0
  0
LINE
  5
64
  8
\U+041F\U+041E_\U+0423\U+041C\U+041E\U+041B\U+0427\U+0410\U+041D\U+0418\U+042E
 10
1939.27116402093
 20
1365.995575491854
 30
0.0
 11
1851.223093102362
 21
1301.60055986624
 31
0.0
  0
LINE
  5
65
  8
\U+041F\U+041E_\U+0423\U+041C\U+041E\U+041B\U+0427\U+0410\U+041D\U+0418\U+042E
 10
1851.223093102362
 20
1301.60055986624
 30
0.0
 11
2465.177622135341
 21
1301.60055986624
 31
0.0
  0
LINE
  5
66
  8
\U+041F\U+041E_\U+0423\U+041C\U+041E\U+041B\U+0427\U+0410\U+041D\U+0418\U+042E
 10
2296.400357618852
 20
1354.20055986624
 30
0.0
 11
2372.800357618852
 21
1354.20055986624
 31
0.0
  0
LINE
  5
67
  8
\U+041F\U+041E_\U+0423\U+041C\U+041E\U+041B\U+0427\U+0410\U+041D\U+0418\U+042E
 10
2372.800357618852
 20
1354.20055986624
 30
0.0
 11
2372.800357618852
 21
1361.20055986624
 31
0.0
  0
LINE
  5
68
  8
\U+041F\U+041E_\U+0423\U+041C\U+041E\U+041B\U+0427\U+0410\U+041D\U+0418\U+042E
 10
2372.800357618852
 20
1361.20055986624
 30
0.0
 11
2296.400357618852
 21
1361.20055986624
 31
0.0
  0
LINE
  5
69
  8
\U+041F\U+041E_\U+0423\U+041C\U+041E\U+041B\U+0427\U+0410\U+041D\U+0418\U+042E
 10
2296.400357618852
 20
1361.20055986624
 30
0.0
 11
2296.400357618852
 21
1354.20055986624
 31
0.0
  0
LINE
  5
6A
  8
\U+041F\U+041E_\U+0423\U+041C\U+041E\U+041B\U+0427\U+0410\U+041D\U+0418\U+042E
 10
1943.14852293789
 20
1354.20055986624
 30
0.0
 11
2019.54852293789
 21
1354.20055986624
 31
0.0
  0
LINE
  5
6B
  8
\U+041F\U+041E_\U+0423\U+041C\U+041E\U+041B\U+0427\U+0410\U+041D\U+0418\U+042E
 10
2019.54852293789
 20
1354.20055986624
 30
0.0
 11
2019.54852293789
 21
1361.20055986624
 31
0.0
  0
LINE
  5
6C
  8
\U+041F\U+041E_\U+0423\U+041C\U+041E\U+041B\U+0427\U+0410\U+041D\U+0418\U+042E
 10
2019.54852293789
 20
1361.20055986624
 30
0.0
 11
1943.14852293789
 21
1361.20055986624
 31
0.0
  0
LINE
  5
6D
  8
\U+041F\U+041E_\U+0423\U+041C\U+041E\U+041B\U+0427\U+0410\U+041D\U+0418\U+042E
 10
1943.14852293789
 20
1361.20055986624
 30
0.0
 11
1943.14852293789
 21
1354.20055986624
 31
0.0
  0
LINE
  5
6E
  8
\U+041F\U+041E_\U+0423\U+041C\U+041E\U+041B\U+0427\U+0410\U+041D\U+0418\U+042E
 10
2120.000357618852
 20
1354.20055986624
 30
0.0
 11
2196.400357618852
 21
1354.20055986624
 31
0.0
  0
LINE
  5
6F
  8
\U+041F\U+041E_\U+0423\U+041C\U+041E\U+041B\U+0427\U+0410\U+041D\U+0418\U+042E
 10
2196.400357618852
 20
1354.20055986624
 30
0.0
 11
2196.400357618852
 21
1361.20055986624
 31
0.0
  0
LINE
  5
70
  8
\U+041F\U+041E_\U+0423\U+041C\U+041E\U+041B\U+0427\U+0410\U+041D\U+0418\U+042E
 10
2196.400357618852
 20
1361.20055986624
 30
0.0
 11
2120.000357618852
 21
1361.20055986624
 31
0.0
  0
LINE
  5
71
  8
\U+041F\U+041E_\U+0423\U+041C\U+041E\U+041B\U+0427\U+0410\U+041D\U+0418\U+042E
 10
2120.000357618852
 20
1361.20055986624
 30
0.0
 11
2120.000357618852
 21
1354.20055986624
 31
0.0
  0
LINE
  5
72
  8
\U+041F\U+041E_\U+0423\U+041C\U+041E\U+041B\U+0427\U+0410\U+041D\U+0418\U+042E
 10
2158.200357618852
 20
1301.60055986624
 30
0.0
 11
2158.200357618852
 21
1354.20055986624
 31
0.0
  0
LINE
  5
73
  8
\U+041F\U+041E_\U+0423\U+041C\U+041E\U+041B\U+0427\U+0410\U+041D\U+0418\U+042E
 10
2034.061803215448
 20
1366.60055986624
 30
0.0
 11
2034.061803215448
 21
1340.189787422334
 31
0.0
  0
LINE
  5
74
  8
\U+041F\U+041E_\U+0423\U+041C\U+041E\U+041B\U+0427\U+0410\U+041D\U+0418\U+042E
 10
2034.061803215448
 20
1340.189787422334
 30
0.0
 11
2034.061803215448
 21
1366.60055986624
 31
0.0
  0
LINE
  5
75
  8
\U+041F\U+041E_\U+0423\U+041C\U+041E\U+041B\U+0427\U+0410\U+041D\U+0418\U+042E
 10
2034.061803215448
 20
1328.011332310146
 30
0.0
 11
2034.061803215448
 21
1301.60055986624
 31
0.0
  0
LINE
  5
76
  8
\U+041F\U+041E_\U+0423\U+041C\U+041E\U+041B\U+0427\U+0410\U+041D\U+0418\U+042E
 10
2032.594071540596
 20
1346.910602207622
 30
0.0
 11
2032.594071540596
 21
1320.499829763716
 31
0.0
  0
LINE
  5
77
  8
\U+041F\U+041E_\U+0423\U+041C\U+041E\U+041B\U+0427\U+0410\U+041D\U+0418\U+042E
 10
2037.244532831384
 20
1366.60055986624
 30
0.0
 11
2037.244532831384
 21
1340.189787422334
 31
0.0
  0
LINE
  5
78
  8
\U+041F\U+041E_\U+0423\U+041C\U+041E\U+041B\U+0427\U+0410\U+041D\U+0418\U+042E
 10
2037.244532831384
 20
1328.011332310146
 30
0.0
 11
2037.244532831384
 21
1301.60055986624
 31
0.0
  0
LINE
  5
79
  8
\U+041F\U+041E_\U+0423\U+041C\U+041E\U+041B\U+0427\U+0410\U+041D\U+0418\U+042E
 10
2035.776801156532
 20
1346.910602207622
 30
0.0
 11
2035.776801156532
 21
1320.499829763716
 31
0.0
  0
LINE
  5
7A
  8
\U+041F\U+041E_\U+0423\U+041C\U+041E\U+041B\U+0427\U+0410\U+041D\U+0418\U+042E
 10
2040.427262447321
 20
1366.60055986624
 30
0.0
 11
2040.427262447321
 21
1340.189787422334
 31
0.0
  0
LINE
  5
7B
  8
\U+041F\U+041E_\U+0423\U+041C\U+041E\U+041B\U+0427\U+0410\U+041D\U+0418\U+042E
 10
2040.427262447321
 20
1328.011332310146
 30
0.0
 11
2040.427262447321
 21
1301.60055986624
 31
0.0
  0
LINE
  5
7C
  8
\U+041F\U+041E_\U+0423\U+041C\U+041E\U+041B\U+0427\U+0410\U+041D\U+0418\U+042E
 10
2038.959530772469
 20
1346.910602207622
 30
0.0
 11
2038.959530772469
 21
1320.499829763716
 31
0.0
  0
LINE
  5
7D
  8
\U+041F\U+041E_\U+0423\U+041C\U+041E\U+041B\U+0427\U+0410\U+041D\U+0418\U+042E
 10
2043.609992063257
 20
1366.60055986624
 30
0.0
 11
2043.609992063257
 21
1340.189787422334
 31
0.0
  0
LINE
  5
7E
  8
\U+041F\U+041E_\U+0423\U+041C\U+041E\U+041B\U+0427\U+0410\U+041D\U+0418\U+042E
 10
2043.609992063257
 20
1328.011332310146
 30
0.0
 11
2043.609992063257
 21
1301.60055986624
 31
0.0
  0
LINE
  5
7F
  8
\U+041F\U+041E_\U+0423\U+041C\U+041E\U+041B\U+0427\U+0410\U+041D\U+0418\U+042E
 10
2042.142260388405
 20
1346.910602207622
 30
0.0
 11
2042.142260388405
 21
1320.499829763716
 31
0.0
  0
LINE
  5
80
  8
\U+041F\U+041E_\U+0423\U+041C\U+041E\U+041B\U+0427\U+0410\U+041D\U+0418\U+042E
 10
2046.792721679193
 20
1366.60055986624
 30
0.0
 11
2046.792721679193
 21
1340.189787422334
 31
0.0
  0
LINE
  5
81
  8
\U+041F\U+041E_\U+0423\U+041C\U+041E\U+041B\U+0427\U+0410\U+041D\U+0418\U+042E
 10
2046.792721679193
 20
1328.011332310146
 30
0.0
 11
2046.792721679193
 21
1301.60055986624
 31
0.0
  0
LINE
  5
82
  8
\U+041F\U+041E_\U+0423\U+041C\U+041E\U+041B\U+0427\U+0410\U+041D\U+0418\U+042E
 10
2045.324990004341
 20
1346.910602207622
 30
0.0
 11
2045.324990004341
 21
1320.499829763716
 31
0.0
  0
LINE
  5
83
  8
\U+041F\U+041E_\U+0423\U+041C\U+041E\U+041B\U+0427\U+0410\U+041D\U+0418\U+042E
 10
2049.97545129513
 20
1366.60055986624
 30
0.0
 11
2049.97545129513
 21
1340.189787422334
 31
0.0
  0
LINE
  5
84
  8
\U+041F\U+041E_\U+0423\U+041C\U+041E\U+041B\U+0427\U+0410\U+041D\U+0418\U+042E
 10
2049.97545129513
 20
1328.011332310146
 30
0.0
 11
2049.97545129513
 21
1301.60055986624
 31
0.0
  0
LINE
  5
85
  8
\U+041F\U+041E_\U+0423\U+041C\U+041E\U+041B\U+0427\U+0410\U+041D\U+0418\U+042E
 10
2048.507719620278
 20
1346.910602207622
 30
0.0
 11
2048.507719620278
 21
1320.499829763716
 31
0.0
  0
LINE
  5
86
  8
\U+041F\U+041E_\U+0423\U+041C\U+041E\U+041B\U+0427\U+0410\U+041D\U+0418\U+042E
 10
2053.158180911066
 20
1366.60055986624
 30
0.0
 11
2053.158180911066
 21
1340.189787422334
 31
0.0
  0
LINE
  5
87
  8
\U+041F\U+041E_\U+0423\U+041C\U+041E\U+041B\U+0427\U+0410\U+041D\U+0418\U+042E
 10
2053.158180911066
 20
1328.011332310146
 30
0.0
 11
2053.158180911066
 21
1301.60055986624
 31
0.0
  0
LINE
  5
88
  8
\U+041F\U+041E_\U+0423\U+041C\U+041E\U+041B\U+0427\U+0410\U+041D\U+0418\U+042E
 10
2051.690449236214
 20
1346.910602207622
 30
0.0
 11
2051.690449236214
 21
1320.499829763716
 31
0.0
  0
LINE
  5
89
  8
\U+041F\U+041E_\U+0423\U+041C\U+041E\U+041B\U+0427\U+0410\U+041D\U+0418\U+042E
 10
2056.340910527002
 20
1366.60055986624
 30
0.0
 11
2056.340910527002
 21
1340.189787422334
 31
0.0
  0
LINE
  5
8A
  8
\U+041F\U+041E_\U+0423\U+041C\U+041E\U+041B\U+0427\U+0410\U+041D\U+0418\U+042E
 10
2056.340910527002
 20
1328.011332310146
 30
0.0
 11
2056.340910527002
 21
1301.60055986624
 31
0.0
  0
LINE
  5
8B
  8
\U+041F\U+041E_\U+0423\U+041C\U+041E\U+041B\U+0427\U+0410\U+041D\U+0418\U+042E
 10
2054.87317885215
 20
1346.910602207622
 30
0.0
 11
2054.87317885215
 21
1320.499829763716
 31
0.0
  0
LINE
  5
8C
  8
\U+041F\U+041E_\U+0423\U+041C\U+041E\U+041B\U+0427\U+0410\U+041D\U+0418\U+042E
 10
2059.523640142938
 20
1366.60055986624
 30
0.0
 11
2059.523640142938
 21
1340.189787422334
 31
0.0
  0
LINE
  5
8D
  8
\U+041F\U+041E_\U+0423\U+041C\U+041E\U+041B\U+0427\U+0410\U+041D\U+0418\U+042E
 10
2059.523640142938
 20
1328.011332310146
 30
0.0
 11
2059.523640142938
 21
1301.60055986624
 31
0.0
  0
LINE
  5
8E
  8
\U+041F\U+041E_\U+0423\U+041C\U+041E\U+041B\U+0427\U+0410\U+041D\U+0418\U+042E
 10
2058.055908468086
 20
1346.910602207622
 30
0.0
 11
2058.055908468086
 21
1320.499829763716
 31
0.0
  0
LINE
  5
8F
  8
\U+041F\U+041E_\U+0423\U+041C\U+041E\U+041B\U+0427\U+0410\U+041D\U+0418\U+042E
 10
2062.706369758875
 20
1366.60055986624
 30
0.0
 11
2062.706369758875
 21
1340.189787422334
 31
0.0
  0
LINE
  5
90
  8
\U+041F\U+041E_\U+0423\U+041C\U+041E\U+041B\U+0427\U+0410\U+041D\U+0418\U+042E
 10
2062.706369758875
 20
1328.011332310146
 30
0.0
 11
2062.706369758875
 21
1301.60055986624
 31
0.0
  0
LINE
  5
91
  8
\U+041F\U+041E_\U+0423\U+041C\U+041E\U+041B\U+0427\U+0410\U+041D\U+0418\U+042E
 10
2061.238638084023
 20
1346.910602207622
 30
0.0
 11
2061.238638084023
 21
1320.499829763716
 31
0.0
  0
LINE
  5
92
  8
\U+041F\U+041E_\U+0423\U+041C\U+041E\U+041B\U+0427\U+0410\U+041D\U+0418\U+042E
 10
2065.889099374811
 20
1366.60055986624
 30
0.0
 11
2065.889099374811
 21
1340.189787422334
 31
0.0
  0
LINE
  5
93
  8
\U+041F\U+041E_\U+0423\U+041C\U+041E\U+041B\U+0427\U+0410\U+041D\U+0418\U+042E
 10
2065.889099374811
 20
1328.011332310146
 30
0.0
 11
2065.889099374811
 21
1301.60055986624
 31
0.0
  0
LINE
  5
94
  8
\U+041F\U+041E_\U+0423\U+041C\U+041E\U+041B\U+0427\U+0410\U+041D\U+0418\U+042E
 10
2064.421367699959
 20
1346.910602207622
 30
0.0
 11
2064.421367699959
 21
1320.499829763716
 31
0.0
  0
LINE
  5
95
  8
\U+041F\U+041E_\U+0423\U+041C\U+041E\U+041B\U+0427\U+0410\U+041D\U+0418\U+042E
 10
2069.071828990747
 20
1366.60055986624
 30
0.0
 11
2069.071828990747
 21
1340.189787422334
 31
0.0
  0
LINE
  5
96
  8
\U+041F\U+041E_\U+0423\U+041C\U+041E\U+041B\U+0427\U+0410\U+041D\U+0418\U+042E
 10
2069.071828990747
 20
1328.011332310146
 30
0.0
 11
2069.071828990747
 21
1301.60055986624
 31
0.0
  0
LINE
  5
97
  8
\U+041F\U+041E_\U+0423\U+041C\U+041E\U+041B\U+0427\U+0410\U+041D\U+0418\U+042E
 10
2067.604097315895
 20
1346.910602207622
 30
0.0
 11
2067.604097315895
 21
1320.499829763716
 31
0.0
  0
LINE
  5
98
  8
\U+041F\U+041E_\U+0423\U+041C\U+041E\U+041B\U+0427\U+0410\U+041D\U+0418\U+042E
 10
2072.254558606684
 20
1366.60055986624
 30
0.0
 11
2072.254558606684
 21
1340.189787422334
 31
0.0
  0
LINE
  5
99
  8
\U+041F\U+041E_\U+0423\U+041C\U+041E\U+041B\U+0427\U+0410\U+041D\U+0418\U+042E
 10
2072.254558606684
 20
1328.011332310146
 30
0.0
 11
2072.254558606684
 21
1301.60055986624
 31
0.0
  0
LINE
  5
9A
  8
\U+041F\U+041E_\U+0423\U+041C\U+041E\U+041B\U+0427\U+0410\U+041D\U+0418\U+042E
 10
2070.786826931832
 20
1346.910602207622
 30
0.0
 11
2070.786826931832
 21
1320.499829763716
 31
0.0
  0
LINE
  5
9B
  8
\U+041F\U+041E_\U+0423\U+041C\U+041E\U+041B\U+0427\U+0410\U+041D\U+0418\U+042E
 10
2075.43728822262
 20
1366.60055986624
 30
0.0
 11
2075.43728822262
 21
1340.189787422334
 31
0.0
  0
LINE
  5
9C
  8
\U+041F\U+041E_\U+0423\U+041C\U+041E\U+041B\U+0427\U+0410\U+041D\U+0418\U+042E
 10
2075.43728822262
 20
1328.011332310146
 30
0.0
 11
2075.43728822262
 21
1301.60055986624
 31
0.0
  0
LINE
  5
9D
  8
\U+041F\U+041E_\U+0423\U+041C\U+041E\U+041B\U+0427\U+0410\U+041D\U+0418\U+042E
 10
2073.969556547768
 20
1346.910602207622
 30
0.0
 11
2073.969556547768
 21
1320.499829763716
 31
0.0
  0
LINE
  5
9E
  8
\U+041F\U+041E_\U+0423\U+041C\U+041E\U+041B\U+0427\U+0410\U+041D\U+0418\U+042E
 10
2078.620017838556
 20
1366.60055986624
 30
0.0
 11
2078.620017838556
 21
1340.189787422334
 31
0.0
  0
LINE
  5
9F
  8
\U+041F\U+041E_\U+0423\U+041C\U+041E\U+041B\U+0427\U+0410\U+041D\U+0418\U+042E
 10
2078.620017838556
 20
1328.011332310146
 30
0.0
 11
2078.620017838556
 21
1301.60055986624
 31
0.0
  0
LINE
  5
A0
  8
\U+041F\U+041E_\U+0423\U+041C\U+041E\U+041B\U+0427\U+0410\U+041D\U+0418\U+042E
 10
2077.152286163704
 20
1346.910602207622
 30
0.0
 11
2077.152286163704
 21
1320.499829763716
 31
0.0
  0
LINE
  5
A1
  8
\U+041F\U+041E_\U+0423\U+041C\U+041E\U+041B\U+0427\U+0410\U+041D\U+0418\U+042E
 10
2081.802747454493
 20
1366.60055986624
 30
0.0
 11
2081.802747454493
 21
1340.189787422334
 31
0.0
  0
LINE
  5
A2
  8
\U+041F\U+041E_\U+0423\U+041C\U+041E\U+041B\U+0427\U+0410\U+041D\U+0418\U+042E
 10
2081.802747454493
 20
1328.011332310146
 30
0.0
 11
2081.802747454493
 21
1301.60055986624
 31
0.0
  0
LINE
  5
A3
  8
\U+041F\U+041E_\U+0423\U+041C\U+041E\U+041B\U+0427\U+0410\U+041D\U+0418\U+042E
 10
2080.33501577964
 20
1346.910602207622
 30
0.0
 11
2080.33501577964
 21
1320.499829763716
 31
0.0
  0
LINE
  5
A4
  8
\U+041F\U+041E_\U+0423\U+041C\U+041E\U+041B\U+0427\U+0410\U+041D\U+0418\U+042E
 10
2084.985477070429
 20
1366.60055986624
 30
0.0
 11
2084.985477070429
 21
1340.189787422334
 31
0.0
  0
LINE
  5
A5
  8
\U+041F\U+041E_\U+0423\U+041C\U+041E\U+041B\U+0427\U+0410\U+041D\U+0418\U+042E
 10
2084.985477070429
 20
1328.011332310146
 30
0.0
 11
2084.985477070429
 21
1301.60055986624
 31
0.0
  0
LINE
  5
A6
  8
\U+041F\U+041E_\U+0423\U+041C\U+041E\U+041B\U+0427\U+0410\U+041D\U+0418\U+042E
 10
2083.517745395577
 20
1346.910602207622
 30
0.0
 11
2083.517745395577
 21
1320.499829763716
 31
0.0
  0
LINE
  5
A7
  8
\U+041F\U+041E_\U+0423\U+041C\U+041E\U+041B\U+0427\U+0410\U+041D\U+0418\U+042E
 10
2088.168206686365
 20
1366.60055986624
 30
0.0
 11
2088.168206686365
 21
1340.189787422334
 31
0.0
  0
LINE
  5
A8
  8
\U+041F\U+041E_\U+0423\U+041C\U+041E\U+041B\U+0427\U+0410\U+041D\U+0418\U+042E
 10
2088.168206686365
 20
1328.011332310146
 30
0.0
 11
2088.168206686365
 21
1301.60055986624
 31
0.0
  0
LINE
  5
A9
  8
\U+041F\U+041E_\U+0423\U+041C\U+041E\U+041B\U+0427\U+0410\U+041D\U+0418\U+042E
 10
2086.700475011513
 20
1346.910602207622
 30
0.0
 11
2086.700475011513
 21
1320.499829763716
 31
0.0
  0
LINE
  5
AA
  8
\U+041F\U+041E_\U+0423\U+041C\U+041E\U+041B\U+0427\U+0410\U+041D\U+0418\U+042E
 10
2091.350936302301
 20
1366.60055986624
 30
0.0
 11
2091.350936302301
 21
1340.189787422334
 31
0.0
  0
LINE
  5
AB
  8
\U+041F\U+041E_\U+0423\U+041C\U+041E\U+041B\U+0427\U+0410\U+041D\U+0418\U+042E
 10
2091.350936302301
 20
1328.011332310146
 30
0.0
 11
2091.350936302301
 21
1301.60055986624
 31
0.0
  0
LINE
  5
AC
  8
\U+041F\U+041E_\U+0423\U+041C\U+041E\U+041B\U+0427\U+0410\U+041D\U+0418\U+042E
 10
2089.883204627449
 20
1346.910602207622
 30
0.0
 11
2089.883204627449
 21
1320.499829763716
 31
0.0
  0
LINE
  5
AD
  8
\U+041F\U+041E_\U+0423\U+041C\U+041E\U+041B\U+0427\U+0410\U+041D\U+0418\U+042E
 10
2094.533665918238
 20
1366.60055986624
 30
0.0
 11
2094.533665918238
 21
1340.189787422334
 31
0.0
  0
LINE
  5
AE
  8
\U+041F\U+041E_\U+0423\U+041C\U+041E\U+041B\U+0427\U+0410\U+041D\U+0418\U+042E
 10
2094.533665918238
 20
1328.011332310146
 30
0.0
 11
2094.533665918238
 21
1301.60055986624
 31
0.0
  0
LINE
  5
AF
  8
\U+041F\U+041E_\U+0423\U+041C\U+041E\U+041B\U+0427\U+0410\U+041D\U+0418\U+042E
 10
2093.065934243386
 20
1346.910602207622
 30
0.0
 11
2093.065934243386
 21
1320.499829763716
 31
0.0
  0
LINE
  5
B0
  8
\U+041F\U+041E_\U+0423\U+041C\U+041E\U+041B\U+0427\U+0410\U+041D\U+0418\U+042E
 10
2097.716395534174
 20
1366.60055986624
 30
0.0
 11
2097.716395534174
 21
1340.189787422334
 31
0.0
  0
LINE
  5
B1
  8
\U+041F\U+041E_\U+0423\U+041C\U+041E\U+041B\U+0427\U+0410\U+041D\U+0418\U+042E
 10
2097.716395534174
 20
1328.011332310146
 30
0.0
 11
2097.716395534174
 21
1301.60055986624
 31
0.0
  0
LINE
  5
B2
  8
\U+041F\U+041E_\U+0423\U+041C\U+041E\U+041B\U+0427\U+0410\U+041D\U+0418\U+042E
 10
2096.248663859322
 20
1346.910602207622
 30
0.0
 11
2096.248663859322
 21
1320.499829763716
 31
0.0
  0
LINE
  5
B3
  8
\U+041F\U+041E_\U+0423\U+041C\U+041E\U+041B\U+0427\U+0410\U+041D\U+0418\U+042E
 10
2100.89912515011
 20
1366.60055986624
 30
0.0
 11
2100.89912515011
 21
1340.189787422334
 31
0.0
  0
LINE
  5
B4
  8
\U+041F\U+041E_\U+0423\U+041C\U+041E\U+041B\U+0427\U+0410\U+041D\U+0418\U+042E
 10
2100.89912515011
 20
1328.011332310146
 30
0.0
 11
2100.89912515011
 21
1301.60055986624
 31
0.0
  0
LINE
  5
B5
  8
\U+041F\U+041E_\U+0423\U+041C\U+041E\U+041B\U+0427\U+0410\U+041D\U+0418\U+042E
 10
2099.431393475258
 20
1346.910602207622
 30
0.0
 11
2099.431393475258
 21
1320.499829763716
 31
0.0
  0
LINE
  5
B6
  8
\U+041F\U+041E_\U+0423\U+041C\U+041E\U+041B\U+0427\U+0410\U+041D\U+0418\U+042E
 10
2220.920653626399
 20
1366.60055986624
 30
0.0
 11
2220.920653626399
 21
1340.189787422334
 31
0.0
  0
LINE
  5
B7
  8
\U+041F\U+041E_\U+0423\U+041C\U+041E\U+041B\U+0427\U+0410\U+041D\U+0418\U+042E
 10
2220.920653626399
 20
1340.189787422334
 30
0.0
 11
2220.920653626399
 21
1366.60055986624
 31
0.0
  0
LINE
  5
B8
  8
\U+041F\U+041E_\U+0423\U+041C\U+041E\U+041B\U+0427\U+0410\U+041D\U+0418\U+042E
 10
2220.920653626399
 20
1328.011332310146
 30
0.0
 11
2220.920653626399
 21
1301.60055986624
 31
0.0
  0
LINE
  5
B9
  8
\U+041F\U+041E_\U+0423\U+041C\U+041E\U+041B\U+0427\U+0410\U+041D\U+0418\U+042E
 10
2219.452921951547
 20
1346.910602207622
 30
0.0
 11
2219.452921951547
 21
1320.499829763716
 31
0.0
  0
LINE
  5
BA
  8
\U+041F\U+041E_\U+0423\U+041C\U+041E\U+041B\U+0427\U+0410\U+041D\U+0418\U+042E
 10
2224.103383242335
 20
1366.60055986624
 30
0.0
 11
2224.103383242335
 21
1340.189787422334
 31
0.0
  0
LINE
  5
BB
  8
\U+041F\U+041E_\U+0423\U+041C\U+041E\U+041B\U+0427\U+0410\U+041D\U+0418\U+042E
 10
2224.103383242335
 20
1328.011332310146
 30
0.0
 11
2224.103383242335
 21
1301.60055986624
 31
0.0
  0
LINE
  5
BC
  8
\U+041F\U+041E_\U+0423\U+041C\U+041E\U+041B\U+0427\U+0410\U+041D\U+0418\U+042E
 10
2222.635651567483
 20
1346.910602207622
 30
0.0
 11
2222.635651567483
 21
1320.499829763716
 31
0.0
  0
LINE
  5
BD
  8
\U+041F\U+041E_\U+0423\U+041C\U+041E\U+041B\U+0427\U+0410\U+041D\U+0418\U+042E
 10
2227.286112858271
 20
1366.60055986624
 30
0.0
 11
2227.286112858271
 21
1340.189787422334
 31
0.0
  0
LINE
  5
BE
  8
\U+041F\U+041E_\U+0423\U+041C\U+041E\U+041B\U+0427\U+0410\U+041D\U+0418\U+042E
 10
2227.286112858271
 20
1328.011332310146
 30
0.0
 11
2227.286112858271
 21
1301.60055986624
 31
0.0
  0
LINE
  5
BF
  8
\U+041F\U+041E_\U+0423\U+041C\U+041E\U+041B\U+0427\U+0410\U+041D\U+0418\U+042E
 10
2225.818381183419
 20
1346.910602207622
 30
0.0
 11
2225.818381183419
 21
1320.499829763716
 31
0.0
  0
LINE
  5
C0
  8
\U+041F\U+041E_\U+0423\U+041C\U+041E\U+041B\U+0427\U+0410\U+041D\U+0418\U+042E
 10
2230.468842474208
 20
1366.60055986624
 30
0.0
 11
2230.468842474208
 21
1340.189787422334
 31
0.0
  0
LINE
  5
C1
  8
\U+041F\U+041E_\U+0423\U+041C\U+041E\U+041B\U+0427\U+0410\U+041D\U+0418\U+042E
 10
2230.468842474208
 20
1328.011332310146
 30
0.0
 11
2230.468842474208
 21
1301.60055986624
 31
0.0
  0
LINE
  5
C2
  8
\U+041F\U+041E_\U+0423\U+041C\U+041E\U+041B\U+0427\U+0410\U+041D\U+0418\U+042E
 10
2229.001110799356
 20
1346.910602207622
 30
0.0
 11
2229.001110799356
 21
1320.499829763716
 31
0.0
  0
LINE
  5
C3
  8
\U+041F\U+041E_\U+0423\U+041C\U+041E\U+041B\U+0427\U+0410\U+041D\U+0418\U+042E
 10
2233.651572090144
 20
1366.60055986624
 30
0.0
 11
2233.651572090144
 21
1340.189787422334
 31
0.0
  0
LINE
  5
C4
  8
\U+041F\U+041E_\U+0423\U+041C\U+041E\U+041B\U+0427\U+0410\U+041D\U+0418\U+042E
 10
2233.651572090144
 20
1328.011332310146
 30
0.0
 11
2233.651572090144
 21
1301.60055986624
 31
0.0
  0
LINE
  5
C5
  8
\U+041F\U+041E_\U+0423\U+041C\U+041E\U+041B\U+0427\U+0410\U+041D\U+0418\U+042E
 10
2232.183840415292
 20
1346.910602207622
 30
0.0
 11
2232.183840415292
 21
1320.499829763716
 31
0.0
  0
LINE
  5
C6
  8
\U+041F\U+041E_\U+0423\U+041C\U+041E\U+041B\U+0427\U+0410\U+041D\U+0418\U+042E
 10
2236.83430170608
 20
1366.60055986624
 30
0.0
 11
2236.83430170608
 21
1340.189787422334
 31
0.0
  0
LINE
  5
C7
  8
\U+041F\U+041E_\U+0423\U+041C\U+041E\U+041B\U+0427\U+0410\U+041D\U+0418\U+042E
 10
2236.83430170608
 20
1328.011332310146
 30
0.0
 11
2236.83430170608
 21
1301.60055986624
 31
0.0
  0
LINE
  5
C8
  8
\U+041F\U+041E_\U+0423\U+041C\U+041E\U+041B\U+0427\U+0410\U+041D\U+0418\U+042E
 10
2235.366570031228
 20
1346.910602207622
 30
0.0
 11
2235.366570031228
 21
1320.499829763716
 31
0.0
  0
LINE
  5
C9
  8
\U+041F\U+041E_\U+0423\U+041C\U+041E\U+041B\U+0427\U+0410\U+041D\U+0418\U+042E
 10
2240.017031322017
 20
1366.60055986624
 30
0.0
 11
2240.017031322017
 21
1340.189787422334
 31
0.0
  0
LINE
  5
CA
  8
\U+041F\U+041E_\U+0423\U+041C\U+041E\U+041B\U+0427\U+0410\U+041D\U+0418\U+042E
 10
2240.017031322017
 20
1328.011332310146
 30
0.0
 11
2240.017031322017
 21
1301.60055986624
 31
0.0
  0
LINE
  5
CB
  8
\U+041F\U+041E_\U+0423\U+041C\U+041E\U+041B\U+0427\U+0410\U+041D\U+0418\U+042E
 10
2238.549299647165
 20
1346.910602207622
 30
0.0
 11
2238.549299647165
 21
1320.499829763716
 31
0.0
  0
LINE
  5
CC
  8
\U+041F\U+041E_\U+0423\U+041C\U+041E\U+041B\U+0427\U+0410\U+041D\U+0418\U+042E
 10
2243.199760937953
 20
1366.60055986624
 30
0.0
 11
2243.199760937953
 21
1340.189787422334
 31
0.0
  0
LINE
  5
CD
  8
\U+041F\U+041E_\U+0423\U+041C\U+041E\U+041B\U+0427\U+0410\U+041D\U+0418\U+042E
 10
2243.199760937953
 20
1328.011332310146
 30
0.0
 11
2243.199760937953
 21
1301.60055986624
 31
0.0
  0
LINE
  5
CE
  8
\U+041F\U+041E_\U+0423\U+041C\U+041E\U+041B\U+0427\U+0410\U+041D\U+0418\U+042E
 10
2241.732029263101
 20
1346.910602207622
 30
0.0
 11
2241.732029263101
 21
1320.499829763716
 31
0.0
  0
LINE
  5
CF
  8
\U+041F\U+041E_\U+0423\U+041C\U+041E\U+041B\U+0427\U+0410\U+041D\U+0418\U+042E
 10
2246.382490553889
 20
1366.60055986624
 30
0.0
 11
2246.382490553889
 21
1340.189787422334
 31
0.0
  0
LINE
  5
D0
  8
\U+041F\U+041E_\U+0423\U+041C\U+041E\U+041B\U+0427\U+0410\U+041D\U+0418\U+042E
 10
2246.382490553889
 20
1328.011332310146
 30
0.0
 11
2246.382490553889
 21
1301.60055986624
 31
0.0
  0
LINE
  5
D1
  8
\U+041F\U+041E_\U+0423\U+041C\U+041E\U+041B\U+0427\U+0410\U+041D\U+0418\U+042E
 10
2244.914758879037
 20
1346.910602207622
 30
0.0
 11
2244.914758879037
 21
1320.499829763716
 31
0.0
  0
LINE
  5
D2
  8
\U+041F\U+041E_\U+0423\U+041C\U+041E\U+041B\U+0427\U+0410\U+041D\U+0418\U+042E
 10
2249.565220169825
 20
1366.60055986624
 30
0.0
 11
2249.565220169825
 21
1340.189787422334
 31
0.0
  0
LINE
  5
D3
  8
\U+041F\U+041E_\U+0423\U+041C\U+041E\U+041B\U+0427\U+0410\U+041D\U+0418\U+042E
 10
2249.565220169825
 20
1328.011332310146
 30
0.0
 11
2249.565220169825
 21
1301.60055986624
 31
0.0
  0
LINE
  5
D4
  8
\U+041F\U+041E_\U+0423\U+041C\U+041E\U+041B\U+0427\U+0410\U+041D\U+0418\U+042E
 10
2248.097488494973
 20
1346.910602207622
 30
0.0
 11
2248.097488494973
 21
1320.499829763716
 31
0.0
  0
LINE
  5
D5
  8
\U+041F\U+041E_\U+0423\U+041C\U+041E\U+041B\U+0427\U+0410\U+041D\U+0418\U+042E
 10
2252.747949785762
 20
1366.60055986624
 30
0.0
 11
2252.747949785762
 21
1340.189787422334
 31
0.0
  0
LINE
  5
D6
  8
\U+041F\U+041E_\U+0423\U+041C\U+041E\U+041B\U+0427\U+0410\U+041D\U+0418\U+042E
 10
2252.747949785762
 20
1328.011332310146
 30
0.0
 11
2252.747949785762
 21
1301.60055986624
 31
0.0
  0
LINE
  5
D7
  8
\U+041F\U+041E_\U+0423\U+041C\U+041E\U+041B\U+0427\U+0410\U+041D\U+0418\U+042E
 10
2251.28021811091
 20
1346.910602207622
 30
0.0
 11
2251.28021811091
 21
1320.499829763716
 31
0.0
  0
LINE
  5
D8
  8
\U+041F\U+041E_\U+0423\U+041C\U+041E\U+041B\U+0427\U+0410\U+041D\U+0418\U+042E
 10
2255.930679401698
 20
1366.60055986624
 30
0.0
 11
2255.930679401698
 21
1340.189787422334
 31
0.0
  0
LINE
  5
D9
  8
\U+041F\U+041E_\U+0423\U+041C\U+041E\U+041B\U+0427\U+0410\U+041D\U+0418\U+042E
 10
2255.930679401698
 20
1328.011332310146
 30
0.0
 11
2255.930679401698
 21
1301.60055986624
 31
0.0
  0
LINE
  5
DA
  8
\U+041F\U+041E_\U+0423\U+041C\U+041E\U+041B\U+0427\U+0410\U+041D\U+0418\U+042E
 10
2254.462947726846
 20
1346.910602207622
 30
0.0
 11
2254.462947726846
 21
1320.499829763716
 31
0.0
  0
LINE
  5
DB
  8
\U+041F\U+041E_\U+0423\U+041C\U+041E\U+041B\U+0427\U+0410\U+041D\U+0418\U+042E
 10
2259.113409017634
 20
1366.60055986624
 30
0.0
 11
2259.113409017634
 21
1340.189787422334
 31
0.0
  0
LINE
  5
DC
  8
\U+041F\U+041E_\U+0423\U+041C\U+041E\U+041B\U+0427\U+0410\U+041D\U+0418\U+042E
 10
2259.113409017634
 20
1328.011332310146
 30
0.0
 11
2259.113409017634
 21
1301.60055986624
 31
0.0
  0
LINE
  5
DD
  8
\U+041F\U+041E_\U+0423\U+041C\U+041E\U+041B\U+0427\U+0410\U+041D\U+0418\U+042E
 10
2257.645677342782
 20
1346.910602207622
 30
0.0
 11
2257.645677342782
 21
1320.499829763716
 31
0.0
  0
LINE
  5
DE
  8
\U+041F\U+041E_\U+0423\U+041C\U+041E\U+041B\U+0427\U+0410\U+041D\U+0418\U+042E
 10
2262.296138633571
 20
1366.60055986624
 30
0.0
 11
2262.296138633571
 21
1340.189787422334
 31
0.0
  0
LINE
  5
DF
  8
\U+041F\U+041E_\U+0423\U+041C\U+041E\U+041B\U+0427\U+0410\U+041D\U+0418\U+042E
 10
2262.296138633571
 20
1328.011332310146
 30
0.0
 11
2262.296138633571
 21
1301.60055986624
 31
0.0
  0
LINE
  5
E0
  8
\U+041F\U+041E_\U+0423\U+041C\U+041E\U+041B\U+0427\U+0410\U+041D\U+0418\U+042E
 10
2260.828406958719
 20
1346.910602207622
 30
0.0
 11
2260.828406958719
 21
1320.499829763716
 31
0.0
  0
LINE
  5
E1
  8
\U+041F\U+041E_\U+0423\U+041C\U+041E\U+041B\U+0427\U+0410\U+041D\U+0418\U+042E
 10
2265.478868249507
 20
1366.60055986624
 30
0.0
 11
2265.478868249507
 21
1340.189787422334
 31
0.0
  0
LINE
  5
E2
  8
\U+041F\U+041E_\U+0423\U+041C\U+041E\U+041B\U+0427\U+0410\U+041D\U+0418\U+042E
 10
2265.478868249507
 20
1328.011332310146
 30
0.0
 11
2265.478868249507
 21
1301.60055986624
 31
0.0
  0
LINE
  5
E3
  8
\U+041F\U+041E_\U+0423\U+041C\U+041E\U+041B\U+0427\U+0410\U+041D\U+0418\U+042E
 10
2264.011136574655
 20
1346.910602207622
 30
0.0
 11
2264.011136574655
 21
1320.499829763716
 31
0.0
  0
LINE
  5
E4
  8
\U+041F\U+041E_\U+0423\U+041C\U+041E\U+041B\U+0427\U+0410\U+041D\U+0418\U+042E
 10
2268.661597865443
 20
1366.60055986624
 30
0.0
 11
2268.661597865443
 21
1340.189787422334
 31
0.0
  0
LINE
  5
E5
  8
\U+041F\U+041E_\U+0423\U+041C\U+041E\U+041B\U+0427\U+0410\U+041D\U+0418\U+042E
 10
2268.661597865443
 20
1328.011332310146
 30
0.0
 11
2268.661597865443
 21
1301.60055986624
 31
0.0
  0
LINE
  5
E6
  8
\U+041F\U+041E_\U+0423\U+041C\U+041E\U+041B\U+0427\U+0410\U+041D\U+0418\U+042E
 10
2267.193866190591
 20
1346.910602207622
 30
0.0
 11
2267.193866190591
 21
1320.499829763716
 31
0.0
  0
LINE
  5
E7
  8
\U+041F\U+041E_\U+0423\U+041C\U+041E\U+041B\U+0427\U+0410\U+041D\U+0418\U+042E
 10
2271.84432748138
 20
1366.60055986624
 30
0.0
 11
2271.84432748138
 21
1340.189787422334
 31
0.0
  0
LINE
  5
E8
  8
\U+041F\U+041E_\U+0423\U+041C\U+041E\U+041B\U+0427\U+0410\U+041D\U+0418\U+042E
 10
2271.84432748138
 20
1328.011332310146
 30
0.0
 11
2271.84432748138
 21
1301.60055986624
 31
0.0
  0
LINE
  5
E9
  8
\U+041F\U+041E_\U+0423\U+041C\U+041E\U+041B\U+0427\U+0410\U+041D\U+0418\U+042E
 10
2270.376595806528
 20
1346.910602207622
 30
0.0
 11
2270.376595806528
 21
1320.499829763716
 31
0.0
  0
LINE
  5
EA
  8
\U+041F\U+041E_\U+0423\U+041C\U+041E\U+041B\U+0427\U+0410\U+041D\U+0418\U+042E
 10
2275.027057097316
 20
1366.60055986624
 30
0.0
 11
2275.027057097316
 21
1340.189787422334
 31
0.0
  0
LINE
  5
EB
  8
\U+041F\U+041E_\U+0423\U+041C\U+041E\U+041B\U+0427\U+0410\U+041D\U+0418\U+042E
 10
2275.027057097316
 20
1328.011332310146
 30
0.0
 11
2275.027057097316
 21
1301.60055986624
 31
0.0
  0
LINE
  5
EC
  8
\U+041F\U+041E_\U+0423\U+041C\U+041E\U+041B\U+0427\U+0410\U+041D\U+0418\U+042E
 10
2273.559325422464
 20
1346.910602207622
 30
0.0
 11
2273.559325422464
 21
1320.499829763716
 31
0.0
  0
LINE
  5
ED
  8
\U+041F\U+041E_\U+0423\U+041C\U+041E\U+041B\U+0427\U+0410\U+041D\U+0418\U+042E
 10
2278.209786713252
 20
1366.60055986624
 30
0.0
 11
2278.209786713252
 21
1340.189787422334
 31
0.0
  0
LINE
  5
EE
  8
\U+041F\U+041E_\U+0423\U+041C\U+041E\U+041B\U+0427\U+0410\U+041D\U+0418\U+042E
 10
2278.209786713252
 20
1328.011332310146
 30
0.0
 11
2278.209786713252
 21
1301.60055986624
 31
0.0
  0
LINE
  5
EF
  8
\U+041F\U+041E_\U+0423\U+041C\U+041E\U+041B\U+0427\U+0410\U+041D\U+0418\U+042E
 10
2276.7420550384
 20
1346.910602207622
 30
0.0
 11
2276.7420550384
 21
1320.499829763716
 31
0.0
  0
LINE
  5
F0
  8
\U+041F\U+041E_\U+0423\U+041C\U+041E\U+041B\U+0427\U+0410\U+041D\U+0418\U+042E
 10
2281.392516329189
 20
1366.60055986624
 30
0.0
 11
2281.392516329189
 21
1340.189787422334
 31
0.0
  0
LINE
  5
F1
  8
\U+041F\U+041E_\U+0423\U+041C\U+041E\U+041B\U+0427\U+0410\U+041D\U+0418\U+042E
 10
2281.392516329189
 20
1328.011332310146
 30
0.0
 11
2281.392516329189
 21
1301.60055986624
 31
0.0
  0
LINE
  5
F2
  8
\U+041F\U+041E_\U+0423\U+041C\U+041E\U+041B\U+0427\U+0410\U+041D\U+0418\U+042E
 10
2279.924784654336
 20
1346.910602207622
 30
0.0
 11
2279.924784654336
 21
1320.499829763716
 31
0.0
  0
LINE
  5
F3
  8
\U+041F\U+041E_\U+0423\U+041C\U+041E\U+041B\U+0427\U+0410\U+041D\U+0418\U+042E
 10
2284.575245945125
 20
1366.60055986624
 30
0.0
 11
2284.575245945125
 21
1340.189787422334
 31
0.0
  0
LINE
  5
F4
  8
\U+041F\U+041E_\U+0423\U+041C\U+041E\U+041B\U+0427\U+0410\U+041D\U+0418\U+042E
 10
2284.575245945125
 20
1328.011332310146
 30
0.0
 11
2284.575245945125
 21
1301.60055986624
 31
0.0
  0
LINE
  5
F5
  8
\U+041F\U+041E_\U+0423\U+041C\U+041E\U+041B\U+0427\U+0410\U+041D\U+0418\U+042E
 10
2283.107514270273
 20
1346.910602207622
 30
0.0
 11
2283.107514270273
 21
1320.499829763716
 31
0.0
  0
LINE
  5
F6
  8
\U+041F\U+041E_\U+0423\U+041C\U+041E\U+041B\U+0427\U+0410\U+041D\U+0418\U+042E
 10
2287.757975561061
 20
1366.60055986624
 30
0.0
 11
2287.757975561061
 21
1340.189787422334
 31
0.0
  0
LINE
  5
F7
  8
\U+041F\U+041E_\U+0423\U+041C\U+041E\U+041B\U+0427\U+0410\U+041D\U+0418\U+042E
 10
2287.757975561061
 20
1328.011332310146
 30
0.0
 11
2287.757975561061
 21
1301.60055986624
 31
0.0
  0
LINE
  5
F8
  8
\U+041F\U+041E_\U+0423\U+041C\U+041E\U+041B\U+0427\U+0410\U+041D\U+0418\U+042E
 10
2286.290243886209
 20
1346.910602207622
 30
0.0
 11
2286.290243886209
 21
1320.499829763716
 31
0.0
  0
ENDSEC
  0
EOF
