  0
SECTION
  2
HEADER
  9
$ACADVER
  1
AC1009
  9
$DWGCODEPAGE
  3
ansi_1252
  9
$INSBASE
 10
0.0
 20
0.0
 30
0.0
  9
$EXTMIN
 10
30.57969801625654
 20
462.0651505843301
 30
88.26135112336746
  9
$EXTMAX
 10
190.5796980162565
 20
642.0651505843301
 30
88.2613511233675
  9
$LIMMIN
 10
0.0
 20
0.0
  9
$LIMMAX
 10
12.0
 20
9.0
  9
$ORTHOMODE
 70
     0
  9
$REGENMODE
 70
     1
  9
$FILLMODE
 70
     1
  9
$QTEXTMODE
 70
     0
  9
$MIRRTEXT
 70
     1
  9
$DRAGMODE
 70
     2
  9
$LTSCALE
 40
1.0
  9
$OSMODE
 70
    37
  9
$ATTMODE
 70
     1
  9
$TEXTSIZE
 40
0.2
  9
$TRACEWID
 40
0.05
  9
$TEXTSTYLE
  7
STANDARD
  9
$CLAYER
  8
0
  9
$CELTYPE
  6
BYLAYER
  9
$CECOLOR
 62
   256
  9
$DIMSCALE
 40
1.0
  9
$DIMASZ
 40
0.18
  9
$DIMEXO
 40
0.0625
  9
$DIMDLI
 40
0.38
  9
$DIMRND
 40
0.0
  9
$DIMDLE
 40
0.0
  9
$DIMEXE
 40
0.18
  9
$DIMTP
 40
0.0
  9
$DIMTM
 40
0.0
  9
$DIMTXT
 40
0.18
  9
$DIMCEN
 40
0.09
  9
$DIMTSZ
 40
0.0
  9
$DIMTOL
 70
     0
  9
$DIMLIM
 70
     0
  9
$DIMTIH
 70
     1
  9
$DIMTOH
 70
     1
  9
$DIMSE1
 70
     0
  9
$DIMSE2
 70
     0
  9
$DIMTAD
 70
     0
  9
$DIMZIN
 70
     0
  9
$DIMBLK
  1

  9
$DIMASO
 70
     1
  9
$DIMSHO
 70
     1
  9
$DIMPOST
  1

  9
$DIMAPOST
  1

  9
$DIMALT
 70
     0
  9
$DIMALTD
 70
     2
  9
$DIMALTF
 40
25.4
  9
$DIMLFAC
 40
1.0
  9
$DIMTOFL
 70
     0
  9
$DIMTVP
 40
0.0
  9
$DIMTIX
 70
     0
  9
$DIMSOXD
 70
     0
  9
$DIMSAH
 70
     0
  9
$DIMBLK1
  1

  9
$DIMBLK2
  1

  9
$DIMSTYLE
  2
STANDARD_ACAD
  9
$DIMCLRD
 70
     0
  9
$DIMCLRE
 70
     0
  9
$DIMCLRT
 70
     0
  9
$DIMTFAC
 40
1.0
  9
$DIMGAP
 40
0.09
  9
$LUNITS
 70
     2
  9
$LUPREC
 70
     2
  9
$SKETCHINC
 40
0.1
  9
$FILLETRAD
 40
0.0
  9
$AUNITS
 70
     0
  9
$AUPREC
 70
     0
  9
$MENU
  1
.
  9
$ELEVATION
 40
0.0
  9
$PELEVATION
 40
0.0
  9
$THICKNESS
 40
0.0
  9
$LIMCHECK
 70
     0
  9
$CHAMFERA
 40
0.0
  9
$CHAMFERB
 40
0.0
  9
$SKPOLY
 70
     0
  9
$TDCREATE
 40
2460636.02804397
  9
$TDUPDATE
 40
2460636.0280561
  9
$TDINDWG
 40
0.0000000116
  9
$TDUSRTIMER
 40
0.0000000116
  9
$USRTIMER
 70
     1
  9
$ANGBASE
 50
0.0
  9
$ANGDIR
 70
     0
  9
$PDMODE
 70
     0
  9
$PDSIZE
 40
0.0
  9
$PLINEWID
 40
0.0
  9
$COORDS
 70
     1
  9
$SPLFRAME
 70
     0
  9
$SPLINETYPE
 70
     6
  9
$SPLINESEGS
 70
     8
  9
$ATTDIA
 70
     0
  9
$ATTREQ
 70
     1
  9
$HANDLING
 70
     1
  9
$HANDSEED
  5
85
  9
$SURFTAB1
 70
     6
  9
$SURFTAB2
 70
     6
  9
$SURFTYPE
 70
     6
  9
$SURFU
 70
     6
  9
$SURFV
 70
     6
  9
$UCSNAME
  2

  9
$UCSORG
 10
0.0
 20
0.0
 30
0.0
  9
$UCSXDIR
 10
1.0
 20
0.0
 30
0.0
  9
$UCSYDIR
 10
0.0
 20
1.0
 30
0.0
  9
$PUCSNAME
  2

  9
$PUCSORG
 10
0.0
 20
0.0
 30
0.0
  9
$PUCSXDIR
 10
1.0
 20
0.0
 30
0.0
  9
$PUCSYDIR
 10
0.0
 20
1.0
 30
0.0
  9
$USERI1
 70
     0
  9
$USERI2
 70
     0
  9
$USERI3
 70
     0
  9
$USERI4
 70
     0
  9
$USERI5
 70
     0
  9
$USERR1
 40
0.0
  9
$USERR2
 40
0.0
  9
$USERR3
 40
0.0
  9
$USERR4
 40
0.0
  9
$USERR5
 40
0.0
  9
$WORLDVIEW
 70
     1
  9
$SHADEDGE
 70
     3
  9
$SHADEDIF
 70
    70
  9
$TILEMODE
 70
     1
  9
$MAXACTVP
 70
    64
  9
$PLIMCHECK
 70
     0
  9
$PEXTMIN
 10
1.000000000000000E+20
 20
1.000000000000000E+20
 30
1.000000000000000E+20
  9
$PEXTMAX
 10
-1.000000000000000E+20
 20
-1.000000000000000E+20
 30
-1.000000000000000E+20
  9
$PLIMMIN
 10
0.0
 20
0.0
  9
$PLIMMAX
 10
12.0
 20
9.0
  9
$UNITMODE
 70
     0
  9
$VISRETAIN
 70
     1
  9
$PLINEGEN
 70
     0
  9
$PSLTSCALE
 70
     1
  0
ENDSEC
  0
SECTION
  2
TABLES
  0
TABLE
  2
VPORT
 70
     1
  0
VPORT
  2
*ACTIVE
 70
     0
 10
0.0
 20
0.0
 11
1.0
 21
1.0
 12
10.42990654205607
 22
4.5
 13
0.0
 23
0.0
 14
0.5
 24
0.5
 15
0.5
 25
0.5
 16
0.0
 26
0.0
 36
1.0
 17
0.0
 27
0.0
 37
0.0
 40
9.0
 41
1.972972972850329
 42
50.0
 43
0.0
 44
0.0
 50
0.0
 51
0.0
 71
     0
 72
   100
 73
     1
 74
     3
 75
     0
 76
     0
 77
     0
 78
     0
  0
ENDTAB
  0
TABLE
  2
LTYPE
 70
     1
  0
LTYPE
  2
CONTINUOUS
 70
     0
  3
Solid line
 72
    65
 73
     0
 40
0.0
  0
ENDTAB
  0
TABLE
  2
LAYER
 70
     2
  0
LAYER
  2
0
 70
     0
 62
     7
  6
CONTINUOUS
  0
LAYER
  2
\U+041F\U+041E_\U+0423\U+041C\U+041E\U+041B\U+0427\U+0410\U+041D\U+0418\U+042E
 70
     0
 62
     7
  6
CONTINUOUS
  0
ENDTAB
  0
TABLE
  2
STYLE
 70
     1
  0
STYLE
  2
STANDARD
 70
     0
 40
0.0
 41
1.0
 50
0.0
 71
     0
 42
0.2
  3
txt
  4

  0
ENDTAB
  0
TABLE
  2
VIEW
 70
     0
  0
ENDTAB
  0
TABLE
  2
UCS
 70
     0
  0
ENDTAB
  0
TABLE
  2
APPID
 70
     2
  0
APPID
  2
ACAD
 70
     0
  0
APPID
  2
RHINO
 70
     0
  0
ENDTAB
  0
TABLE
  2
DIMSTYLE
 70
     1
  0
DIMSTYLE
  2
STANDARD_ACAD
 70
     0
  3

  4

  5

  6

  7

 40
1.0
 41
0.18
 42
0.0625
 43
0.38
 44
0.18
 45
0.0
 46
0.0
 47
0.0
 48
0.0
140
0.18
141
0.09
142
0.0
143
25.4
144
1.0
145
0.0
146
1.0
147
0.09
 71
     0
 72
     0
 73
     1
 74
     1
 75
     0
 76
     0
 77
     0
 78
     0
170
     0
171
     2
172
     0
173
     0
174
     0
175
     0
176
     0
177
     0
178
     0
  0
ENDTAB
  0
ENDSEC
  0
SECTION
  2
BLOCKS
  0
BLOCK
  8
0
  2
$MODEL_SPACE
 70
     0
 10
0.0
 20
0.0
 30
0.0
  3
$MODEL_SPACE
  1

  0
ENDBLK
  5
21
  8
0
  0
BLOCK
 67
     1
  8
0
  2
$PAPER_SPACE
 70
     0
 10
0.0
 20
0.0
 30
0.0
  3
$PAPER_SPACE
  1

  0
ENDBLK
  5
1D
 67
     1
  8
0
  0
ENDSEC
  0
SECTION
  2
ENTITIES
  0
LINE
  5
60
  8
\U+041F\U+041E_\U+0423\U+041C\U+041E\U+041B\U+0427\U+0410\U+041D\U+0418\U+042E
 10
30.57969801625654
 20
462.0651505843301
 30
88.26135112336748
 11
190.5796980162565
 21
462.0651505843301
 31
88.26135112336748
  0
LINE
  5
61
  8
\U+041F\U+041E_\U+0423\U+041C\U+041E\U+041B\U+0427\U+0410\U+041D\U+0418\U+042E
 10
190.5796980162565
 20
462.0651505843301
 30
88.26135112336748
 11
190.5796980162565
 21
642.0651505843301
 31
88.26135112336748
  0
LINE
  5
62
  8
\U+041F\U+041E_\U+0423\U+041C\U+041E\U+041B\U+0427\U+0410\U+041D\U+0418\U+042E
 10
190.5796980162565
 20
642.0651505843301
 30
88.26135112336748
 11
30.57969801625654
 21
642.0651505843301
 31
88.26135112336748
  0
LINE
  5
63
  8
\U+041F\U+041E_\U+0423\U+041C\U+041E\U+041B\U+0427\U+0410\U+041D\U+0418\U+042E
 10
30.57969801625654
 20
642.0651505843301
 30
88.26135112336748
 11
30.57969801625654
 21
462.0651505843301
 31
88.26135112336748
  0
CIRCLE
  5
64
  8
\U+041F\U+041E_\U+0423\U+041C\U+041E\U+041B\U+0427\U+0410\U+041D\U+0418\U+042E
 10
-125.7781214388357
 20
624.6842316761224
 30
-88.2613511233675
 40
14.9029289320953
210
0.0
220
0.0
230
-1.0
  0
CIRCLE
  5
65
  8
\U+041F\U+041E_\U+0423\U+041C\U+041E\U+041B\U+0427\U+0410\U+041D\U+0418\U+042E
 10
-124.945136189242
 20
586.9634601047362
 30
-88.2613511233675
 40
14.23597825735706
210
0.0
220
0.0
230
-1.0
  0
CIRCLE
  5
66
  8
\U+041F\U+041E_\U+0423\U+041C\U+041E\U+041B\U+0427\U+0410\U+041D\U+0418\U+042E
 10
-88.19587354290408
 20
588.5792990008841
 30
-88.26135112336748
 40
14.9029289320953
210
0.0
220
0.0
230
-1.0
  0
CIRCLE
  5
67
  8
\U+041F\U+041E_\U+0423\U+041C\U+041E\U+041B\U+0427\U+0410\U+041D\U+0418\U+042E
 10
-88.19587354290428
 20
624.6842316761226
 30
-88.26135112336749
 40
14.90292893209541
210
0.0
220
0.0
230
-1.0
  0
CIRCLE
  5
68
  8
\U+041F\U+041E_\U+0423\U+041C\U+041E\U+041B\U+0427\U+0410\U+041D\U+0418\U+042E
 10
-51.21373480643607
 20
624.6842316761224
 30
-88.26135112336748
 40
14.90292893209553
210
0.0
220
0.0
230
-1.0
  0
CIRCLE
  5
69
  8
\U+041F\U+041E_\U+0423\U+041C\U+041E\U+041B\U+0427\U+0410\U+041D\U+0418\U+042E
 10
-51.21373480643594
 20
588.579299000884
 30
-88.2613511233675
 40
14.90292893209548
210
0.0
220
0.0
230
-1.0
  0
CIRCLE
  5
6A
  8
\U+041F\U+041E_\U+0423\U+041C\U+041E\U+041B\U+0427\U+0410\U+041D\U+0418\U+042E
 10
-51.21373480643608
 20
552.4743663256454
 30
-88.26135112336748
 40
14.90292893209538
210
0.0
220
0.0
230
-1.0
  0
CIRCLE
  5
6B
  8
\U+041F\U+041E_\U+0423\U+041C\U+041E\U+041B\U+0427\U+0410\U+041D\U+0418\U+042E
 10
-88.19587354290417
 20
552.4743663256456
 30
-88.26135112336748
 40
14.90292893209532
210
0.0
220
0.0
230
-1.0
  0
CIRCLE
  5
6C
  8
\U+041F\U+041E_\U+0423\U+041C\U+041E\U+041B\U+0427\U+0410\U+041D\U+0418\U+042E
 10
-125.7781214388357
 20
552.4743663256455
 30
-88.26135112336748
 40
14.90292893209534
210
0.0
220
0.0
230
-1.0
  0
CIRCLE
  5
6D
  8
\U+041F\U+041E_\U+0423\U+041C\U+041E\U+041B\U+0427\U+0410\U+041D\U+0418\U+042E
 10
-125.7781214388357
 20
516.369433650407
 30
-88.2613511233675
 40
14.90292893209526
210
0.0
220
0.0
230
-1.0
  0
CIRCLE
  5
6E
  8
\U+041F\U+041E_\U+0423\U+041C\U+041E\U+041B\U+0427\U+0410\U+041D\U+0418\U+042E
 10
-88.19587354290444
 20
516.3694336504069
 30
-88.2613511233675
 40
14.90292893209549
210
0.0
220
0.0
230
-1.0
  0
CIRCLE
  5
6F
  8
\U+041F\U+041E_\U+0423\U+041C\U+041E\U+041B\U+0427\U+0410\U+041D\U+0418\U+042E
 10
-51.21373480643607
 20
516.3694336504068
 30
-88.26135112336748
 40
14.9029289320955
210
0.0
220
0.0
230
-1.0
  0
CIRCLE
  5
70
  8
\U+041F\U+041E_\U+0423\U+041C\U+041E\U+041B\U+0427\U+0410\U+041D\U+0418\U+042E
 10
-51.21373480643597
 20
480.2645009751684
 30
-88.26135112336748
 40
14.90292893209544
210
0.0
220
0.0
230
-1.0
  0
CIRCLE
  5
71
  8
\U+041F\U+041E_\U+0423\U+041C\U+041E\U+041B\U+0427\U+0410\U+041D\U+0418\U+042E
 10
-88.19587354290408
 20
480.2645009751685
 30
-88.26135112336748
 40
14.90292893209521
210
0.0
220
0.0
230
-1.0
  0
CIRCLE
  5
72
  8
\U+041F\U+041E_\U+0423\U+041C\U+041E\U+041B\U+0427\U+0410\U+041D\U+0418\U+042E
 10
-125.7781214388358
 20
480.2645009751684
 30
-88.26135112336749
 40
14.90292893209536
210
0.0
220
0.0
230
-1.0
  0
CIRCLE
  5
73
  8
\U+041F\U+041E_\U+0423\U+041C\U+041E\U+041B\U+0427\U+0410\U+041D\U+0418\U+042E
 10
-162.8539278883806
 20
586.9634601047359
 30
-88.26135112336748
 40
14.23597825735694
210
0.0
220
0.0
230
-1.0
  0
CIRCLE
  5
74
  8
\U+041F\U+041E_\U+0423\U+041C\U+041E\U+041B\U+0427\U+0410\U+041D\U+0418\U+042E
 10
-163.3116203515187
 20
514.341112961618
 30
-88.26135112336748
 40
14.2359782573568
210
0.0
220
0.0
230
-1.0
  0
CIRCLE
  5
75
  8
\U+041F\U+041E_\U+0423\U+041C\U+041E\U+041B\U+0427\U+0410\U+041D\U+0418\U+042E
 10
-163.3828181508966
 20
480.2682097150092
 30
-88.26135112336748
 40
14.23597825735693
210
0.0
220
0.0
230
-1.0
  0
CIRCLE
  5
76
  8
\U+041F\U+041E_\U+0423\U+041C\U+041E\U+041B\U+0427\U+0410\U+041D\U+0418\U+042E
 10
-163.7245291103855
 20
623.1111212988919
 30
-88.26135112336748
 40
14.90292893209551
210
0.0
220
0.0
230
-1.0
  0
CIRCLE
  5
77
  8
\U+041F\U+041E_\U+0423\U+041C\U+041E\U+041B\U+0427\U+0410\U+041D\U+0418\U+042E
 10
-162.8539278883803
 20
551.2860884053968
 30
-88.26135112336748
 40
14.23597825735685
210
0.0
220
0.0
230
-1.0
  0
LINE
  5
78
  8
\U+041F\U+041E_\U+0423\U+041C\U+041E\U+041B\U+0427\U+0410\U+041D\U+0418\U+042E
 10
30.57969801625654
 20
552.0651505843301
 30
88.26135112336748
 11
36.31406119822326
 21
552.0651505843301
 31
88.26135112336748
  0
LINE
  5
79
  8
\U+041F\U+041E_\U+0423\U+041C\U+041E\U+041B\U+0427\U+0410\U+041D\U+0418\U+042E
 10
66.11291554313132
 20
552.0651505843301
 30
88.26135112336749
 11
73.29619993469166
 21
552.0651505843301
 31
88.26135112336748
  0
LINE
  5
7A
  8
\U+041F\U+041E_\U+0423\U+041C\U+041E\U+041B\U+0427\U+0410\U+041D\U+0418\U+042E
 10
103.0950542795996
 20
552.0651505843301
 30
88.26135112336746
 11
110.8784478306231
 21
552.0651505843301
 31
88.26135112336746
  0
LINE
  5
7B
  8
\U+041F\U+041E_\U+0423\U+041C\U+041E\U+041B\U+0427\U+0410\U+041D\U+0418\U+042E
 10
140.6773021755311
 20
552.06515058433
 30
88.26135112336746
 11
148.6370665345571
 21
552.06515058433
 31
88.26135112336746
  0
LINE
  5
7C
  8
\U+041F\U+041E_\U+0423\U+041C\U+041E\U+041B\U+0427\U+0410\U+041D\U+0418\U+042E
 10
177.0705589767467
 20
552.0651505843301
 30
88.26135112336748
 11
190.5796980162565
 21
552.0651505843301
 31
88.26135112336748
  0
LINE
  5
7D
  8
\U+041F\U+041E_\U+0423\U+041C\U+041E\U+041B\U+0427\U+0410\U+041D\U+0418\U+042E
 10
110.5796980162565
 20
462.0651505843301
 30
88.26135112336748
 11
110.5796980162565
 21
642.0651505843301
 31
88.26135112336748
  0
ENDSEC
  0
EOF
